<?xml version="1.0" standalone="no"?>
<!DOCTYPE svg PUBLIC "-//W3C//DTD SVG 20010904//EN"
 "http://www.w3.org/TR/2001/REC-SVG-20010904/DTD/svg10.dtd">
<svg version="1.0" xmlns="http://www.w3.org/2000/svg"
 width="1024.000000pt" height="1024.000000pt" viewBox="0 0 1024.000000 1024.000000"
 preserveAspectRatio="xMidYMid meet">
<metadata>
Created by potrace 1.14, written by Peter Selinger 2001-2017
</metadata>
<g transform="translate(0.000000,1024.000000) scale(0.100000,-0.100000)"
fill="#000000" stroke="none">
<path d="M59 7305 c-1 0 -2 -219 -3 -487 l-2 -488 26 0 c14 -1 260 -1 546 -1
l521 -1 0 -1373 c1 -755 3 -1377 6 -1382 3 -4 286 -8 629 -8 l623 0 3 1382 2
1382 541 0 c297 -1 543 2 546 5 3 3 6 222 6 488 l0 483 -1722 0 c-946 0 -1722
0 -1722 0z"/>
<path d="M3764 7295 c-2 -5 -2 -43 -1 -83 1 -39 -1 -72 -5 -72 -4 0 -5 -7 -1
-16 8 -22 9 -304 1 -304 -4 0 -4 -10 0 -22 4 -13 6 -38 4 -55 -3 -41 -3 -39 0
-151 2 -50 0 -92 -4 -92 -4 0 -5 -7 -1 -16 3 -9 6 -42 7 -73 l1 -56 312 0
c172 -1 315 -4 319 -7 3 -4 5 -40 4 -80 -1 -40 -1 -80 -1 -88 0 -8 0 -37 0
-65 0 -27 0 -57 0 -65 0 -8 0 -51 0 -95 0 -44 0 -87 0 -95 3 -78 1 -161 -3
-168 -2 -4 -1 -24 3 -44 5 -20 5 -41 1 -48 -4 -7 -4 -27 0 -45 4 -19 4 -52 0
-74 -4 -23 -4 -59 0 -81 4 -22 4 -43 0 -45 -4 -3 -4 -20 0 -39 4 -19 4 -53 0
-76 -4 -23 -4 -56 0 -75 4 -18 4 -38 0 -45 -4 -7 -4 -27 0 -45 4 -19 4 -52 0
-74 -4 -23 -4 -59 0 -81 4 -22 4 -43 0 -45 -4 -3 -4 -20 0 -39 4 -19 4 -53 0
-76 -4 -23 -4 -56 0 -75 4 -18 4 -38 0 -45 -4 -7 -4 -27 0 -45 4 -19 4 -51 0
-73 -4 -21 -4 -59 -1 -83 3 -24 4 -74 1 -111 -3 -36 -3 -77 0 -90 3 -13 3 -41
0 -63 -3 -22 -3 -58 0 -80 3 -22 3 -65 0 -96 -3 -31 -3 -67 0 -80 4 -13 3 -37
0 -54 -3 -16 -3 -47 1 -68 3 -20 3 -40 -1 -42 -4 -3 -4 -22 0 -42 5 -20 7 -40
4 -44 -7 -13 -8 -89 0 -96 8 -9 1244 -11 1254 -3 8 6 10 3729 2 3731 -3 1
-430 2 -949 3 -641 1 -944 -2 -947 -9z"/>
<path d="M6270 7125 c0 -140 0 -3092 0 -3475 l0 -85 983 1 c540 1 1016 4 1057
8 75 6 153 14 200 21 14 2 45 7 70 10 206 29 444 103 645 200 235 114 396 235
583 440 72 78 183 251 239 374 79 170 137 380 160 576 9 85 9 410 0 480 -4 28
-9 61 -11 75 -51 364 -213 701 -457 951 -154 157 -277 248 -474 350 -90 46
-292 129 -355 145 -189 49 -262 64 -400 84 -146 21 -205 22 -1217 24 l-1023 2
0 -181z m1895 -810 c109 -9 125 -13 235 -47 189 -60 345 -188 437 -358 31 -57
76 -170 68 -170 -2 0 2 -17 10 -39 33 -95 39 -370 10 -488 -3 -13 -7 -32 -10
-44 -27 -126 -103 -264 -199 -366 -43 -46 -84 -83 -91 -83 -7 0 -15 -4 -17 -9
-11 -28 -225 -119 -318 -135 -19 -3 -48 -9 -65 -12 -16 -4 -180 -8 -362 -11
l-333 -4 0 884 c0 486 2 886 4 888 7 6 552 2 631 -6z"/>
</g>
</svg>
